<mxfile host="Electron" agent="Mozilla/5.0 (Windows NT 10.0; Win64; x64) AppleWebKit/537.36 (KHTML, like Gecko) draw.io/24.7.5 Chrome/126.0.6478.183 Electron/31.3.0 Safari/537.36" version="24.7.5">
  <diagram id="piDafpqhtRUU5qUU-vj8" name="Page-1">
    <mxGraphModel dx="3457" dy="1473" grid="1" gridSize="10" guides="1" tooltips="1" connect="1" arrows="1" fold="1" page="1" pageScale="1" pageWidth="827" pageHeight="1169" math="0" shadow="0">
      <root>
        <mxCell id="0" />
        <mxCell id="1" parent="0" />
        <mxCell id="8962rQQDY3VNNf6We3Pp-1" value="" style="strokeWidth=1;shadow=0;dashed=0;align=center;html=1;shape=mxgraph.mockup.containers.browserWindow;rSize=0;strokeColor2=#008cff;strokeColor3=#c4c4c4;mainText=,;recursiveResize=0;strokeColor=#FFFFFF;fontColor=#FFFFFF;" parent="1" vertex="1">
          <mxGeometry x="10" y="10" width="1150" height="1330" as="geometry" />
        </mxCell>
        <mxCell id="8962rQQDY3VNNf6We3Pp-35" value="" style="verticalLabelPosition=bottom;shadow=0;dashed=0;align=center;html=1;verticalAlign=top;strokeWidth=1;shape=mxgraph.mockup.markup.line;strokeColor=#999999;fillColor=#008CFF;fontSize=13;fontColor=#0066CC;" parent="8962rQQDY3VNNf6We3Pp-1" vertex="1">
          <mxGeometry y="1180" width="1150" height="20" as="geometry" />
        </mxCell>
        <mxCell id="RscdhUZRQrSU_jVHGVxU-1" value="&lt;font style=&quot;font-size: 20px;&quot;&gt;Link1&lt;/font&gt;" style="rounded=0;whiteSpace=wrap;html=1;" vertex="1" parent="8962rQQDY3VNNf6We3Pp-1">
          <mxGeometry x="70" y="160" width="170" height="90" as="geometry" />
        </mxCell>
        <mxCell id="RscdhUZRQrSU_jVHGVxU-2" value="&lt;font style=&quot;font-size: 20px;&quot;&gt;Link1&lt;/font&gt;" style="rounded=0;whiteSpace=wrap;html=1;" vertex="1" parent="8962rQQDY3VNNf6We3Pp-1">
          <mxGeometry x="300" y="160" width="170" height="90" as="geometry" />
        </mxCell>
        <mxCell id="RscdhUZRQrSU_jVHGVxU-3" value="&lt;font style=&quot;font-size: 20px;&quot;&gt;Link1&lt;/font&gt;" style="rounded=0;whiteSpace=wrap;html=1;" vertex="1" parent="8962rQQDY3VNNf6We3Pp-1">
          <mxGeometry x="530" y="160" width="170" height="90" as="geometry" />
        </mxCell>
        <mxCell id="RscdhUZRQrSU_jVHGVxU-4" value="&lt;font style=&quot;font-size: 20px;&quot;&gt;Link1&lt;/font&gt;" style="rounded=0;whiteSpace=wrap;html=1;" vertex="1" parent="8962rQQDY3VNNf6We3Pp-1">
          <mxGeometry x="770" y="160" width="170" height="90" as="geometry" />
        </mxCell>
        <mxCell id="RscdhUZRQrSU_jVHGVxU-5" value="&lt;font style=&quot;font-size: 20px;&quot;&gt;Link1&lt;/font&gt;" style="rounded=0;whiteSpace=wrap;html=1;" vertex="1" parent="8962rQQDY3VNNf6We3Pp-1">
          <mxGeometry x="970" y="160" width="170" height="90" as="geometry" />
        </mxCell>
        <mxCell id="RscdhUZRQrSU_jVHGVxU-7" value="Control Area" style="rounded=0;whiteSpace=wrap;html=1;" vertex="1" parent="8962rQQDY3VNNf6We3Pp-1">
          <mxGeometry x="10" y="1200" width="1140" height="120" as="geometry" />
        </mxCell>
        <mxCell id="RscdhUZRQrSU_jVHGVxU-6" value="Main Area" style="rounded=0;whiteSpace=wrap;html=1;" vertex="1" parent="1">
          <mxGeometry x="20" y="280" width="1130" height="900" as="geometry" />
        </mxCell>
      </root>
    </mxGraphModel>
  </diagram>
</mxfile>
